<!DOCTYPE svg PUBLIC "-//W3C//DTD SVG 1.1//EN" "http://www.w3.org/Graphics/SVG/1.1/DTD/svg11.dtd">
<!-- Uploaded to: SVG Repo, www.svgrepo.com, Transformed by: SVG Repo Mixer Tools -->
<svg fill="#ffffff" width="64px" height="64px" viewBox="0 0 24 24" id="headset" data-name="Flat Color" xmlns="http://www.w3.org/2000/svg" class="icon flat-color" stroke="#ffffff">
<g id="SVGRepo_bgCarrier" stroke-width="0"/>
<g id="SVGRepo_tracerCarrier" stroke-linecap="round" stroke-linejoin="round"/>
<g id="SVGRepo_iconCarrier">
<path id="primary" d="M18.86,5A9.38,9.38,0,0,0,2.64,12.05L3,17v1a4,4,0,0,0,4,4H8a2,2,0,0,0,2-2V13a2,2,0,0,0-2-2H7a3.94,3.94,0,0,0-2.36.79A7.37,7.37,0,0,1,12,4a7.37,7.37,0,0,1,7.36,7.79A3.94,3.94,0,0,0,17,11H16a2,2,0,0,0-2,2v7a2,2,0,0,0,2,2h1a4,4,0,0,0,4-4V17l.36-5A9.43,9.43,0,0,0,18.86,5Z" style="fill: #000000;"/>
</g>
</svg>